<svg width="39" height="26" viewBox="0 0 39 26" fill="none" xmlns="http://www.w3.org/2000/svg">
<g id="Emoji">
<path id="Vector" d="M0 22C0 24.209 1.89588 26 4.23423 26H33.8739C36.2122 26 38.1081 24.209 38.1081 22V18H0V22Z" fill="#138808"/>
<path id="Vector_2" d="M0 8H38.1081V18H0V8Z" fill="#EEEEEE"/>
<path id="Vector_3" d="M38.1081 8V4C38.1081 1.791 36.2122 0 33.8739 0H4.23423C1.89588 0 0 1.791 0 4V8H38.1081Z" fill="#FF9933"/>
<path id="Vector_4" d="M19.054 17C21.3925 17 23.2882 15.2091 23.2882 13C23.2882 10.7909 21.3925 9 19.054 9C16.7155 9 14.8198 10.7909 14.8198 13C14.8198 15.2091 16.7155 17 19.054 17Z" fill="#000080"/>
<path id="Vector_5" d="M19.054 16C20.8079 16 22.2297 14.6569 22.2297 13C22.2297 11.3431 20.8079 10 19.054 10C17.3001 10 15.8783 11.3431 15.8783 13C15.8783 14.6569 17.3001 16 19.054 16Z" fill="#EEEEEE"/>
<path id="Vector_6" d="M19.054 10L19.2086 12.264L20.2682 10.229L19.4954 12.376L21.2992 10.878L19.7145 12.583L21.9873 11.852L19.8331 12.854L22.2297 13L19.8331 13.146L21.9873 14.147L19.7145 13.417L21.2992 15.121L19.4954 13.624L20.2682 15.771L19.2086 13.736L19.054 16L18.8995 13.736L17.8388 15.771L18.6126 13.624L16.8077 15.121L18.3935 13.417L16.1207 14.147L18.2749 13.146L15.8783 13L18.2749 12.854L16.1207 11.852L18.3935 12.583L16.8077 10.878L18.6126 12.376L17.8388 10.229L18.8995 12.264L19.054 10Z" fill="#6666B3"/>
<path id="Vector_7" d="M19.054 14C19.6386 14 20.1126 13.5523 20.1126 13C20.1126 12.4477 19.6386 12 19.054 12C18.4694 12 17.9954 12.4477 17.9954 13C17.9954 13.5523 18.4694 14 19.054 14Z" fill="#000080"/>
</g>
</svg>
